<svg width="36" height="37" viewBox="0 0 36 37" fill="none" xmlns="http://www.w3.org/2000/svg">
<g filter="url(#filter0_d_307_2072)">
<path d="M17 11C17 8.25003 19.3125 5.96253 22.0625 6.00003C23.0256 6.01115 23.9649 6.30018 24.7676 6.83237C25.5704 7.36457 26.2023 8.11728 26.5875 9.00003H31L26.9625 13.0375C26.7019 17.0932 24.9066 20.8975 21.9415 23.6769C18.9764 26.4562 15.0641 28.002 11 28C7 28 6 26.5 6 26.5C6 26.5 10 25 12 22C12 22 4 18 6 7.00003C6 7.00003 11 12 17 13V11Z" stroke="#2871FF" stroke-width="2" stroke-linecap="round" stroke-linejoin="round" shape-rendering="crispEdges"/>
</g>
<defs>
<filter id="filter0_d_307_2072" x="0.678978" y="4.99957" width="35.3211" height="32.0004" filterUnits="userSpaceOnUse" color-interpolation-filters="sRGB">
<feFlood flood-opacity="0" result="BackgroundImageFix"/>
<feColorMatrix in="SourceAlpha" type="matrix" values="0 0 0 0 0 0 0 0 0 0 0 0 0 0 0 0 0 0 127 0" result="hardAlpha"/>
<feOffset dy="4"/>
<feGaussianBlur stdDeviation="2"/>
<feComposite in2="hardAlpha" operator="out"/>
<feColorMatrix type="matrix" values="0 0 0 0 0 0 0 0 0 0 0 0 0 0 0 0 0 0 0.25 0"/>
<feBlend mode="normal" in2="BackgroundImageFix" result="effect1_dropShadow_307_2072"/>
<feBlend mode="normal" in="SourceGraphic" in2="effect1_dropShadow_307_2072" result="shape"/>
</filter>
</defs>
</svg>
